<svg width="128" height="128" viewBox="0 0 128 128" xmlns="http://www.w3.org/2000/svg">
  <!-- Background circle -->
  <circle cx="64" cy="64" r="64" fill="#0ea5e9"/>
  <!-- DevGrid "D" letter -->
  <path d="M40 35 L40 93 L60 93 C75 93 85 83 85 68 C85 53 75 43 60 43 L55 43 L55 60 L60 60 C65 60 70 65 70 68 C70 71 65 76 60 76 L55 76 L55 35 Z" fill="white"/>
  <!-- Grid pattern overlay -->
  <g opacity="0.3">
    <rect x="20" y="20" width="88" height="88" fill="none" stroke="white" stroke-width="1" rx="8"/>
    <line x1="20" y1="45" x2="108" y2="45" stroke="white" stroke-width="0.5"/>
    <line x1="20" y1="70" x2="108" y2="70" stroke="white" stroke-width="0.5"/>
    <line x1="20" y1="95" x2="108" y2="95" stroke="white" stroke-width="0.5"/>
    <line x1="45" y1="20" x2="45" y2="108" stroke="white" stroke-width="0.5"/>
    <line x1="70" y1="20" x2="70" y2="108" stroke="white" stroke-width="0.5"/>
    <line x1="95" y1="20" x2="95" y2="108" stroke="white" stroke-width="0.5"/>
  </g>
</svg>
